<svg width="32" height="32" viewBox="0 0 32 32" fill="none" xmlns="http://www.w3.org/2000/svg">
<rect width="32" height="32" rx="16" fill="white"/>
<path d="M9 8L16 5.5L23 8L25.5 13L25 21.5L16 27L7 21.5L6 13.5L9 8Z" fill="white"/>
<path d="M11.0651 9.73706C10.3012 9.73706 9.68194 10.3509 9.68194 11.1081V12.4591C9.68194 12.5946 9.79275 12.7044 9.92944 12.7044H10.6585C10.7952 12.7044 10.906 12.5946 10.906 12.4591V11.1081C10.906 11.021 10.9772 10.9504 11.0651 10.9504H12.428C12.5647 10.9504 12.6755 10.8406 12.6755 10.7051V9.98239C12.6755 9.8469 12.5647 9.73706 12.428 9.73706H11.0651Z" fill="url(#paint0_linear_4008_39)"/>
<path d="M19.5723 9.73706C19.4357 9.73706 19.3249 9.8469 19.3249 9.98239V10.7051C19.3249 10.8406 19.4357 10.9504 19.5723 10.9504H20.9353C21.0231 10.9504 21.0943 11.021 21.0943 11.1081V12.4591C21.0943 12.5946 21.2052 12.7044 21.3418 12.7044H22.0709C22.2076 12.7044 22.3184 12.5946 22.3184 12.4591V11.1081C22.3184 10.3509 21.6991 9.73706 20.9353 9.73706H19.5723Z" fill="url(#paint1_linear_4008_39)"/>
<path d="M9.68194 19.541C9.68194 19.4055 9.79275 19.2957 9.92944 19.2957H10.6585C10.7952 19.2957 10.906 19.4055 10.906 19.541V20.892C10.906 20.9791 10.9772 21.0497 11.0651 21.0497H12.428C12.5647 21.0497 12.6755 21.1595 12.6755 21.295V22.0177C12.6755 22.1532 12.5647 22.263 12.428 22.263H11.0651C10.3012 22.263 9.68194 21.6492 9.68194 20.892V19.541Z" fill="url(#paint2_linear_4008_39)"/>
<path d="M21.3418 19.2957C21.2052 19.2957 21.0943 19.4055 21.0943 19.541V20.892C21.0943 20.9791 21.0231 21.0497 20.9353 21.0497H19.5723C19.4357 21.0497 19.3249 21.1595 19.3249 21.295V22.0177C19.3249 22.1532 19.4357 22.263 19.5723 22.263H20.9353C21.6991 22.263 22.3184 21.6492 22.3184 20.892V19.541C22.3184 19.4055 22.2076 19.2957 22.0709 19.2957H21.3418Z" fill="url(#paint3_linear_4008_39)"/>
<path fill-rule="evenodd" clip-rule="evenodd" d="M18.9476 11.2862C20.0487 12.2211 20.4397 13.7984 19.8435 16.0196C20.0016 16.1256 20.1631 16.2739 20.2423 16.4242C20.4478 16.814 20.4032 17.2588 20.32 17.5697C20.2306 17.9033 20.052 18.2563 19.7888 18.5243C19.6617 18.6537 19.4914 18.7837 19.2868 18.868C19.1155 19.481 18.8485 20.076 18.4435 20.5577C17.9104 21.1918 17.156 21.6041 16.1812 21.6041C15.1988 21.6041 14.3799 21.269 13.7601 20.6641C13.2678 20.1837 12.9306 19.5627 12.7155 18.8761C12.5021 18.7922 12.3249 18.6581 12.1937 18.5245C11.9304 18.2565 11.7518 17.9035 11.6624 17.5699C11.5791 17.2589 11.5346 16.814 11.7401 16.4242C11.8244 16.2644 12.0016 16.1069 12.169 16C12.169 15.953 12.1454 15.9008 12.1202 15.845C12.111 15.8245 12.1015 15.8035 12.0929 15.7821C11.8443 15.1633 11.702 13.8881 11.8918 13.1918C12.151 12.2415 12.7925 11.6729 13.2869 11.489C13.7319 11.3188 13.9202 11.2892 14.2927 11.234C14.3451 11.1938 14.4084 11.1464 14.4794 11.0955C14.6748 10.9555 14.9585 10.7672 15.2492 10.6353C15.7675 10.3968 16.421 10.3385 17.0523 10.4351C17.6949 10.5335 18.3763 10.801 18.9476 11.2862ZM18.4087 16.1513L18.4116 16.1501C18.3987 16.2423 18.3833 16.3377 18.3653 16.4364C18.358 16.4761 18.3519 16.5046 18.3474 16.5254C18.3446 16.5385 18.3425 16.5485 18.3411 16.5565C18.3202 16.6753 18.5233 16.708 18.645 16.708C18.7817 16.708 18.8224 16.8982 18.7648 17.1192C18.7293 17.2556 18.6286 17.3741 18.5317 17.4883C18.4959 17.5305 18.4606 17.572 18.4293 17.6136C18.4121 17.6365 18.3916 17.6573 18.3653 17.6735C18.3269 17.7055 18.2913 17.7336 18.2585 17.7595C18.2423 17.7732 18.2313 17.7826 18.2217 17.7931C18.2013 17.8156 18.1872 17.8436 18.143 17.9311L18.1434 17.9315C18.113 17.9944 18.091 18.0599 18.0781 18.1242C17.9475 18.7761 17.6493 19.2903 17.346 19.6511C17.0631 19.9877 16.6999 20.3168 16.1812 20.3168C15.5515 20.3168 15.0994 19.984 14.7623 19.655C14.4108 19.3119 14.1387 18.7867 13.9804 18.0847C13.9467 17.9352 13.8599 17.8667 13.7243 17.7597C13.6916 17.7338 13.656 17.7057 13.6176 17.6736C13.5912 17.6574 13.5707 17.6366 13.5535 17.6138C13.5222 17.5721 13.4869 17.5306 13.4512 17.4885C13.3541 17.3742 13.2535 17.2557 13.2179 17.1193C13.1603 16.8983 13.2011 16.7081 13.3378 16.7081C13.4595 16.7081 13.6626 16.6754 13.6418 16.5565C13.641 16.5522 13.64 16.5471 13.6388 16.5413C13.6378 16.5366 13.6367 16.5313 13.6354 16.5254C13.631 16.5046 13.6249 16.4762 13.6176 16.4364C13.3417 14.928 13.6907 14.1947 13.9078 13.9904C14.0113 13.8877 14.1324 13.7785 14.245 13.6861C14.8025 14.0833 15.8916 14.7128 17.4436 14.6484C18.1538 14.6511 18.3002 14.8542 18.3602 14.9777C18.4597 15.1826 18.492 15.5468 18.4087 16.1513Z" fill="url(#paint4_linear_4008_39)"/>
<path fill-rule="evenodd" clip-rule="evenodd" d="M24.2964 8.88581C25.1853 9.5962 26.0742 11.0762 26.1631 12.2305C26.1631 12.2305 26.3705 13.9473 26.4001 15.9808C26.3983 17.2366 26.329 18.4915 26.1927 19.7399C25.9859 21.0471 25.3123 22.2353 24.2964 23.0847C24.2964 23.0847 22.9038 24.091 21.1853 25.127C20.1203 25.7572 19.0224 26.3302 17.8964 26.8438C17.2956 27.0917 16.65 27.2126 16.0001 27.199C15.3511 27.2126 14.706 27.0948 14.1038 26.8527C12.9776 26.3395 11.8797 25.7664 10.8149 25.1359C9.09639 24.1295 7.7038 23.0935 7.7038 23.0935C6.81491 22.3832 5.92602 20.9032 5.80751 19.7488C5.6725 18.5003 5.60327 17.2455 5.6001 15.9897C5.60192 14.7338 5.67115 13.479 5.80751 12.2305C6.01425 10.9234 6.68788 9.73518 7.7038 8.88581C7.7038 8.88581 9.09639 7.90903 10.8149 6.87305C11.8799 6.2429 12.9778 5.66983 14.1038 5.15628C14.7046 4.90838 15.3502 4.78745 16.0001 4.80109C16.6497 4.7903 17.2948 4.91113 17.8964 5.15628C19.0226 5.66947 20.1205 6.24255 21.1853 6.87305C22.2582 7.48688 23.2968 8.15881 24.2964 8.88581ZM23.3008 9.79104C24.083 10.411 24.8653 11.7026 24.9435 12.7101C24.9435 12.7101 25.126 14.2083 25.1521 15.983C25.1505 17.079 25.0896 18.1742 24.9696 19.2637C24.7876 20.4045 24.1948 21.4415 23.3008 22.1828C23.3008 22.1828 22.0753 23.0611 20.563 23.9652C19.6258 24.5151 18.6597 25.0153 17.6688 25.4635C17.1401 25.6798 16.572 25.7854 16.0001 25.7734C15.4289 25.7853 14.8613 25.6825 14.3313 25.4712C13.3403 25.0233 12.3742 24.5232 11.4371 23.9729C9.92483 23.0946 8.69934 22.1905 8.69934 22.1905C7.91712 21.5705 7.1349 20.2789 7.0306 19.2715C6.9118 18.1818 6.85088 17.0868 6.84808 15.9908C6.84968 14.8948 6.91061 13.7996 7.0306 12.7101C7.21254 11.5693 7.80533 10.5323 8.69934 9.79104C8.69934 9.79104 9.92483 8.93857 11.4371 8.03444C12.3743 7.48449 13.3405 6.98436 14.3313 6.53617C14.86 6.31983 15.4282 6.21428 16.0001 6.22619C16.5718 6.21677 17.1394 6.32222 17.6688 6.53617C18.6599 6.98405 19.626 7.48419 20.563 8.03444C21.5072 8.57015 22.4212 9.15656 23.3008 9.79104Z" fill="url(#paint5_linear_4008_39)"/>
<defs>
<linearGradient id="paint0_linear_4008_39" x1="16.0001" y1="4.80005" x2="16.0001" y2="27.2" gradientUnits="userSpaceOnUse">
<stop stop-color="#0066B3"/>
<stop offset="0.354167" stop-color="#0066B3"/>
<stop offset="0.6875" stop-color="#EE2F53"/>
<stop offset="1" stop-color="#EE2F53"/>
</linearGradient>
<linearGradient id="paint1_linear_4008_39" x1="16.0001" y1="4.80005" x2="16.0001" y2="27.2" gradientUnits="userSpaceOnUse">
<stop stop-color="#0066B3"/>
<stop offset="0.354167" stop-color="#0066B3"/>
<stop offset="0.6875" stop-color="#EE2F53"/>
<stop offset="1" stop-color="#EE2F53"/>
</linearGradient>
<linearGradient id="paint2_linear_4008_39" x1="16.0001" y1="4.80005" x2="16.0001" y2="27.2" gradientUnits="userSpaceOnUse">
<stop stop-color="#0066B3"/>
<stop offset="0.354167" stop-color="#0066B3"/>
<stop offset="0.6875" stop-color="#EE2F53"/>
<stop offset="1" stop-color="#EE2F53"/>
</linearGradient>
<linearGradient id="paint3_linear_4008_39" x1="16.0001" y1="4.80005" x2="16.0001" y2="27.2" gradientUnits="userSpaceOnUse">
<stop stop-color="#0066B3"/>
<stop offset="0.354167" stop-color="#0066B3"/>
<stop offset="0.6875" stop-color="#EE2F53"/>
<stop offset="1" stop-color="#EE2F53"/>
</linearGradient>
<linearGradient id="paint4_linear_4008_39" x1="16.0001" y1="4.80005" x2="16.0001" y2="27.2" gradientUnits="userSpaceOnUse">
<stop stop-color="#0066B3"/>
<stop offset="0.354167" stop-color="#0066B3"/>
<stop offset="0.6875" stop-color="#EE2F53"/>
<stop offset="1" stop-color="#EE2F53"/>
</linearGradient>
<linearGradient id="paint5_linear_4008_39" x1="16.0001" y1="4.80005" x2="16.0001" y2="27.2" gradientUnits="userSpaceOnUse">
<stop stop-color="#0066B3"/>
<stop offset="0.354167" stop-color="#0066B3"/>
<stop offset="0.6875" stop-color="#EE2F53"/>
<stop offset="1" stop-color="#EE2F53"/>
</linearGradient>
</defs>
</svg>
