<svg width="20" height="26" viewBox="0 0 20 26" fill="none" xmlns="http://www.w3.org/2000/svg">
<g opacity="0.7">
<path d="M1.66675 11.3333H18.3334" stroke="#1C1717" stroke-width="1.5" stroke-linecap="round" stroke-linejoin="round"/>
<circle cx="5.33342" cy="14.4445" r="0.666674" stroke="#1C1717"/>
<circle cx="10.0002" cy="14.4445" r="0.666674" stroke="#1C1717"/>
<path d="M6.0001 19.1113C6.0001 19.4794 5.70162 19.7779 5.33342 19.7779C4.96523 19.7779 4.66675 19.4794 4.66675 19.1113C4.66675 18.7431 4.96523 18.4446 5.33342 18.4446C5.70162 18.4446 6.0001 18.7431 6.0001 19.1113Z" stroke="#1C1717"/>
<path d="M10.6668 19.1113C10.6668 19.4794 10.3684 19.7779 10.0002 19.7779C9.63198 19.7779 9.3335 19.4794 9.3335 19.1113C9.3335 18.7431 9.63198 18.4446 10.0002 18.4446C10.3684 18.4446 10.6668 18.7431 10.6668 19.1113Z" stroke="#1C1717"/>
<path d="M15.3336 14.4445C15.3336 14.8127 15.0351 15.1112 14.6669 15.1112C14.2987 15.1112 14.0002 14.8127 14.0002 14.4445C14.0002 14.0763 14.2987 13.7778 14.6669 13.7778C15.0351 13.7778 15.3336 14.0763 15.3336 14.4445Z" stroke="#1C1717"/>
<path d="M13.3333 3.83325V7.16659" stroke="#1C1717" stroke-width="1.5" stroke-linecap="round" stroke-linejoin="round"/>
<path d="M6.66675 3.83325V7.16659" stroke="#1C1717" stroke-width="1.5" stroke-linecap="round" stroke-linejoin="round"/>
<path fill-rule="evenodd" clip-rule="evenodd" d="M13.924 5.5H6.08417C3.36445 5.5 1.66675 7.05393 1.66675 9.91018V18.5087C1.66675 21.4102 3.36445 23 6.08417 23H13.916C16.6437 23 18.3334 21.4378 18.3334 18.5806V9.91018C18.3414 7.05393 16.6517 5.5 13.924 5.5Z" stroke="#1C1717" stroke-width="1.5" stroke-linecap="round" stroke-linejoin="round"/>
</g>
</svg>
