<svg width="40" height="40" viewBox="0 0 40 40" fill="none" xmlns="http://www.w3.org/2000/svg">
<rect width="40" height="40" rx="20" fill="white" fill-opacity="0.5"/>
<path d="M13.3333 18.6666H26.6666" stroke="#1C1717" stroke-width="1.5" stroke-linecap="round" stroke-linejoin="round"/>
<mask id="path-3-inside-1_4007_2563" fill="white">
<ellipse cx="16.2666" cy="21.1556" rx="0.933339" ry="0.933339"/>
</mask>
<path d="M16.1999 21.1556C16.1999 21.1188 16.2298 21.089 16.2666 21.089V23.089C17.3343 23.089 18.1999 22.2234 18.1999 21.1556H16.1999ZM16.2666 21.089C16.3034 21.089 16.3333 21.1188 16.3333 21.1556H14.3333C14.3333 22.2234 15.1988 23.089 16.2666 23.089V21.089ZM16.3333 21.1556C16.3333 21.1924 16.3034 21.2223 16.2666 21.2223V19.2223C15.1988 19.2223 14.3333 20.0879 14.3333 21.1556H16.3333ZM16.2666 21.2223C16.2298 21.2223 16.1999 21.1924 16.1999 21.1556H18.1999C18.1999 20.0879 17.3343 19.2223 16.2666 19.2223V21.2223Z" fill="#1C1717" mask="url(#path-3-inside-1_4007_2563)"/>
<mask id="path-5-inside-2_4007_2563" fill="white">
<ellipse cx="20" cy="21.1556" rx="0.933339" ry="0.933339"/>
</mask>
<path d="M19.9333 21.1556C19.9333 21.1188 19.9632 21.089 20 21.089V23.089C21.0677 23.089 21.9333 22.2234 21.9333 21.1556H19.9333ZM20 21.089C20.0368 21.089 20.0667 21.1188 20.0667 21.1556H18.0667C18.0667 22.2234 18.9322 23.089 20 23.089V21.089ZM20.0667 21.1556C20.0667 21.1924 20.0368 21.2223 20 21.2223V19.2223C18.9322 19.2223 18.0667 20.0879 18.0667 21.1556H20.0667ZM20 21.2223C19.9632 21.2223 19.9333 21.1924 19.9333 21.1556H21.9333C21.9333 20.0879 21.0677 19.2223 20 19.2223V21.2223Z" fill="#1C1717" mask="url(#path-5-inside-2_4007_2563)"/>
<mask id="path-7-inside-3_4007_2563" fill="white">
<ellipse cx="16.2666" cy="24.889" rx="0.933339" ry="0.933339"/>
</mask>
<path d="M16.1999 24.889C16.1999 24.8522 16.2298 24.8224 16.2666 24.8224V26.8224C17.3343 26.8224 18.1999 25.9568 18.1999 24.889H16.1999ZM16.2666 24.8224C16.3034 24.8224 16.3333 24.8522 16.3333 24.889H14.3333C14.3333 25.9568 15.1988 26.8224 16.2666 26.8224V24.8224ZM16.3333 24.889C16.3333 24.9258 16.3034 24.9557 16.2666 24.9557V22.9557C15.1988 22.9557 14.3333 23.8213 14.3333 24.889H16.3333ZM16.2666 24.9557C16.2298 24.9557 16.1999 24.9258 16.1999 24.889H18.1999C18.1999 23.8213 17.3343 22.9557 16.2666 22.9557V24.9557Z" fill="#1C1717" mask="url(#path-7-inside-3_4007_2563)"/>
<mask id="path-9-inside-4_4007_2563" fill="white">
<ellipse cx="20" cy="24.889" rx="0.933339" ry="0.933339"/>
</mask>
<path d="M19.9333 24.889C19.9333 24.8522 19.9632 24.8224 20 24.8224V26.8224C21.0677 26.8224 21.9333 25.9568 21.9333 24.889H19.9333ZM20 24.8224C20.0368 24.8224 20.0667 24.8522 20.0667 24.889H18.0667C18.0667 25.9568 18.9322 26.8224 20 26.8224V24.8224ZM20.0667 24.889C20.0667 24.9258 20.0368 24.9557 20 24.9557V22.9557C18.9322 22.9557 18.0667 23.8213 18.0667 24.889H20.0667ZM20 24.9557C19.9632 24.9557 19.9333 24.9258 19.9333 24.889H21.9333C21.9333 23.8213 21.0677 22.9557 20 22.9557V24.9557Z" fill="#1C1717" mask="url(#path-9-inside-4_4007_2563)"/>
<mask id="path-11-inside-5_4007_2563" fill="white">
<ellipse cx="23.7334" cy="21.1556" rx="0.93334" ry="0.933339"/>
</mask>
<path d="M23.6667 21.1556C23.6667 21.1188 23.6966 21.089 23.7334 21.089V23.089C24.8011 23.089 25.6667 22.2234 25.6667 21.1556H23.6667ZM23.7334 21.089C23.7702 21.089 23.8 21.1188 23.8 21.1556H21.8C21.8 22.2234 22.6656 23.089 23.7334 23.089V21.089ZM23.8 21.1556C23.8 21.1924 23.7702 21.2223 23.7334 21.2223V19.2223C22.6656 19.2223 21.8 20.0879 21.8 21.1556H23.8ZM23.7334 21.2223C23.6966 21.2223 23.6667 21.1924 23.6667 21.1556H25.6667C25.6667 20.0879 24.8011 19.2223 23.7334 19.2223V21.2223Z" fill="#1C1717" mask="url(#path-11-inside-5_4007_2563)"/>
<path d="M22.6667 12.6666V15.3333" stroke="#1C1717" stroke-width="1.5" stroke-linecap="round" stroke-linejoin="round"/>
<path d="M17.3333 12.6666V15.3333" stroke="#1C1717" stroke-width="1.5" stroke-linecap="round" stroke-linejoin="round"/>
<path fill-rule="evenodd" clip-rule="evenodd" d="M23.1391 14H16.8672C14.6914 14 13.3333 15.2431 13.3333 17.5281V24.407C13.3333 26.7281 14.6914 28 16.8672 28H23.1327C25.3148 28 26.6666 26.7503 26.6666 24.4645V17.5281C26.673 15.2431 25.3212 14 23.1391 14Z" stroke="#1C1717" stroke-width="1.5" stroke-linecap="round" stroke-linejoin="round"/>
</svg>
