<svg width="21" height="25" viewBox="0 0 21 25" fill="none" xmlns="http://www.w3.org/2000/svg">
<path d="M12.8992 20.2771V15.277C12.8992 15.056 12.8114 14.844 12.6551 14.6877C12.4989 14.5314 12.2869 14.4436 12.0659 14.4436H8.73254C8.51153 14.4436 8.29957 14.5314 8.14329 14.6877C7.98701 14.844 7.89921 15.056 7.89921 15.277V20.2771C7.89921 20.4981 7.81143 20.71 7.65517 20.8663C7.49891 21.0226 7.28698 21.1104 7.06598 21.1104L2.06659 21.1111C1.95715 21.1111 1.84877 21.0895 1.74766 21.0477C1.64654 21.0058 1.55466 20.9444 1.47727 20.867C1.39988 20.7896 1.33848 20.6978 1.2966 20.5967C1.25471 20.4956 1.23315 20.3872 1.23315 20.2777V10.6464C1.23315 10.5303 1.25741 10.4155 1.30438 10.3093C1.35134 10.2032 1.41997 10.108 1.50587 10.0299L9.83863 2.45334C9.99203 2.31387 10.1919 2.23658 10.3992 2.23657C10.6065 2.23657 10.8064 2.31384 10.9598 2.4533L19.2937 10.0299C19.3796 10.108 19.4483 10.2032 19.4953 10.3094C19.5422 10.4155 19.5665 10.5304 19.5665 10.6465V20.2777C19.5665 20.3872 19.5449 20.4956 19.503 20.5967C19.4612 20.6978 19.3998 20.7896 19.3224 20.867C19.245 20.9444 19.1531 21.0058 19.052 21.0477C18.9509 21.0895 18.8425 21.1111 18.733 21.1111L13.7324 21.1104C13.5114 21.1104 13.2995 21.0226 13.1432 20.8663C12.987 20.71 12.8992 20.4981 12.8992 20.2771V20.2771Z" stroke="#1C1717" stroke-width="1.5" stroke-linecap="round" stroke-linejoin="round"/>
</svg>
