<svg width="21" height="26" viewBox="0 0 21 26" fill="none" xmlns="http://www.w3.org/2000/svg">
<g clip-path="url(#clip0_4008_339)">
<path d="M18.9044 13.0001C18.9044 8.22895 15.0365 4.36011 10.2644 4.36011C5.49231 4.36011 1.62439 8.22895 1.62439 13.0001C1.62439 17.7722 5.49231 21.6401 10.2644 21.6401C15.0365 21.6401 18.9044 17.7722 18.9044 13.0001Z" stroke="#1C1717" stroke-width="1.44" stroke-linecap="round" stroke-linejoin="round"/>
<path d="M5.75684 20.3495C5.93617 18.9549 7.1766 17.4062 10.2571 17.4062C13.3703 17.4062 14.6023 18.9634 14.7742 20.3748" stroke="#1C1717" stroke-width="1.44" stroke-linecap="round" stroke-linejoin="round"/>
<path fill-rule="evenodd" clip-rule="evenodd" d="M12.8739 12.3285C12.8739 13.7697 11.7054 14.9382 10.2641 14.9382C8.82289 14.9382 7.65442 13.7697 7.65442 12.3285C7.65442 10.8873 8.82289 9.71875 10.2641 9.71875C11.7054 9.71875 12.8739 10.8873 12.8739 12.3285Z" stroke="#1C1717" stroke-width="1.44" stroke-linecap="round" stroke-linejoin="round"/>
</g>
<defs>
<clipPath id="clip0_4008_339">
<rect width="20" height="25" fill="white" transform="translate(0.599976 0.5)"/>
</clipPath>
</defs>
</svg>
