<svg width="21" height="25" viewBox="0 0 21 25" fill="none" xmlns="http://www.w3.org/2000/svg">
<g clip-path="url(#clip0_4008_307)">
<path d="M1.2937 9.35132H19.1175Z" fill="#1C1717"/>
<path d="M1.2937 9.35132H19.1175" stroke="#1C1717" stroke-width="1.44" stroke-linecap="round" stroke-linejoin="round"/>
<path d="M14.2454 1.94434V5.23516Z" fill="#1C1717"/>
<path d="M14.2454 1.94434V5.23516" stroke="#1C1717" stroke-width="1.44" stroke-linecap="round" stroke-linejoin="round"/>
<path d="M6.16479 1.94434V5.23516Z" fill="#1C1717"/>
<path d="M6.16479 1.94434V5.23516" stroke="#1C1717" stroke-width="1.44" stroke-linecap="round" stroke-linejoin="round"/>
<path fill-rule="evenodd" clip-rule="evenodd" d="M14.4381 3.52441H5.97102C3.03372 3.52441 1.2002 5.16009 1.2002 8.16659V17.2174C1.2002 20.2715 3.03372 21.945 5.97102 21.945H14.4294C17.3754 21.945 19.2002 20.3007 19.2002 17.2931V8.16659C19.2089 5.16009 17.384 3.52441 14.4381 3.52441Z" stroke="#1C1717" stroke-width="1.44" stroke-linecap="round" stroke-linejoin="round"/>
<path fill-rule="evenodd" clip-rule="evenodd" d="M10.6187 12.2978L11.3117 13.6827C11.3809 13.8189 11.5117 13.9129 11.663 13.9346L13.2133 14.1572C13.4652 14.1908 13.6415 14.421 13.609 14.6729C13.595 14.7757 13.5463 14.8708 13.4717 14.9432L12.3507 16.02C12.2403 16.1248 12.1907 16.2784 12.2166 16.4276L12.4815 17.9486C12.5226 18.2027 12.3496 18.4416 12.0955 18.4827C11.996 18.4989 11.8933 18.4816 11.8036 18.434L10.4187 17.7162C10.2826 17.6459 10.1203 17.6459 9.98413 17.7162L8.59824 18.4351C8.37113 18.5551 8.08901 18.4686 7.96899 18.2416C7.92143 18.1519 7.90413 18.0491 7.92035 17.9497L8.18635 16.4286C8.21224 16.2784 8.16246 16.1259 8.05224 16.02L6.93007 14.9432C6.74737 14.767 6.74196 14.4772 6.9171 14.2946C6.98954 14.2189 7.08467 14.1714 7.18737 14.1572L8.73868 13.9346C8.89013 13.914 9.0209 13.8189 9.09013 13.6827L9.78413 12.2978C9.90413 12.0676 10.1873 11.9778 10.4177 12.0967C10.5041 12.141 10.5745 12.2114 10.6187 12.2978Z" stroke="#1C1717" stroke-width="1.44" stroke-linecap="round" stroke-linejoin="round"/>
</g>
<defs>
<clipPath id="clip0_4008_307">
<rect width="20" height="25" fill="white" transform="translate(0.199951)"/>
</clipPath>
</defs>
</svg>
