<svg width="20" height="25" viewBox="0 0 20 25" fill="none" xmlns="http://www.w3.org/2000/svg">
<path d="M18.9995 8.96907V7.39189C18.9995 5.24259 17.257 3.5 15.1067 3.5H13.8496" stroke="#1C1717" stroke-width="1.5" stroke-linecap="round" stroke-linejoin="round"/>
<path d="M1 8.96907V7.39189C1 5.24259 2.74259 3.5 4.89286 3.5H6.18205" stroke="#1C1717" stroke-width="1.5" stroke-linecap="round" stroke-linejoin="round"/>
<path d="M1 16.0312V17.6084C1 19.7578 2.74259 21.5003 4.89286 21.5003H6.14994" stroke="#1C1717" stroke-width="1.5" stroke-linecap="round" stroke-linejoin="round"/>
<path d="M19.0004 16.0312V17.6084C19.0004 19.7578 17.2578 21.5003 15.1075 21.5003H13.8184" stroke="#1C1717" stroke-width="1.5" stroke-linecap="round" stroke-linejoin="round"/>
<path fill-rule="evenodd" clip-rule="evenodd" d="M7.35356 10.7769H5.64113C5.13129 10.7769 4.71875 10.3644 4.71875 9.85453V8.1421C4.71875 7.63226 5.13129 7.21875 5.64113 7.21875H7.35356C7.86339 7.21875 8.2759 7.63226 8.2759 8.1421V9.85453C8.2759 10.3644 7.86339 10.7769 7.35356 10.7769Z" stroke="#1C1717" stroke-width="1.5" stroke-linecap="round" stroke-linejoin="round"/>
<path fill-rule="evenodd" clip-rule="evenodd" d="M7.42458 17.7815H5.64113C5.13129 17.7815 4.71875 17.368 4.71875 16.8592V15.0757C4.71875 14.5659 5.13129 14.1523 5.64113 14.1523H7.42458C7.93442 14.1523 8.347 14.5659 8.347 15.0757V16.8592C8.347 17.368 7.93442 17.7815 7.42458 17.7815Z" stroke="#1C1717" stroke-width="1.5" stroke-linecap="round" stroke-linejoin="round"/>
<path fill-rule="evenodd" clip-rule="evenodd" d="M12.5747 7.21875H14.3582C14.868 7.21875 15.2806 7.63129 15.2806 8.14113V9.92458C15.2806 10.4344 14.868 10.847 14.3582 10.847H12.5747C12.0649 10.847 11.6523 10.4344 11.6523 9.92458V8.14113C11.6523 7.63129 12.0649 7.21875 12.5747 7.21875Z" stroke="#1C1717" stroke-width="1.5" stroke-linecap="round" stroke-linejoin="round"/>
<path d="M12.2393 17.7795H12.179" stroke="#1C1717" stroke-width="1.5" stroke-linecap="round" stroke-linejoin="round"/>
<path d="M15.3409 17.7795H15.2805" stroke="#1C1717" stroke-width="1.5" stroke-linecap="round" stroke-linejoin="round"/>
<path d="M15.3409 14.6819H15.2805" stroke="#1C1717" stroke-width="1.5" stroke-linecap="round" stroke-linejoin="round"/>
<path d="M13.7903 16.2285H13.73" stroke="#1C1717" stroke-width="1.5" stroke-linecap="round" stroke-linejoin="round"/>
<path d="M12.2393 14.6819H12.179" stroke="#1C1717" stroke-width="1.5" stroke-linecap="round" stroke-linejoin="round"/>
</svg>
